<svg width="30" height="30" viewBox="0 0 30 30" fill="none" xmlns="http://www.w3.org/2000/svg">
<path d="M11.7185 16.9143C11.3951 16.6556 10.9231 16.708 10.6643 17.0315C10.4056 17.3549 10.458 17.8269 10.7815 18.0857L11.7185 16.9143ZM13.441 19.2528L13.9095 18.6672L13.441 19.2528ZM15.1626 19.0999L14.5982 18.606L15.1626 19.0999ZM19.3144 15.4939C19.5872 15.1822 19.5556 14.7083 19.2439 14.4356C18.9322 14.1628 18.4583 14.1944 18.1856 14.5061L19.3144 15.4939ZM10.7815 18.0857L12.9725 19.8385L13.9095 18.6672L11.7185 16.9143L10.7815 18.0857ZM15.727 19.5937L19.3144 15.4939L18.1856 14.5061L14.5982 18.606L15.727 19.5937ZM12.9725 19.8385C13.8083 20.5071 15.0223 20.3992 15.727 19.5937L14.5982 18.606C14.422 18.8074 14.1185 18.8343 13.9095 18.6672L12.9725 19.8385ZM25.5 10V22.5H27V10H25.5ZM21.25 26.75H8.75V28.25H21.25V26.75ZM4.5 22.5V10H3V22.5H4.5ZM20 5.75H21.25V4.25H20V5.75ZM8.75 5.75H10V4.25H8.75V5.75ZM8.75 26.75C6.40279 26.75 4.5 24.8472 4.5 22.5H3C3 25.6756 5.57436 28.25 8.75 28.25V26.75ZM25.5 22.5C25.5 24.8472 23.5972 26.75 21.25 26.75V28.25C24.4256 28.25 27 25.6756 27 22.5H25.5ZM27 10C27 6.82436 24.4256 4.25 21.25 4.25V5.75C23.5972 5.75 25.5 7.65279 25.5 10H27ZM4.5 10C4.5 7.65279 6.40279 5.75 8.75 5.75V4.25C5.57436 4.25 3 6.82436 3 10H4.5ZM12.5 3.25H17.5V1.75H12.5V3.25ZM17.5 6.75H12.5V8.25H17.5V6.75ZM12.5 6.75C11.5335 6.75 10.75 5.9665 10.75 5H9.25C9.25 6.79493 10.7051 8.25 12.5 8.25V6.75ZM19.25 5C19.25 5.9665 18.4665 6.75 17.5 6.75V8.25C19.2949 8.25 20.75 6.79493 20.75 5H19.25ZM17.5 3.25C18.4665 3.25 19.25 4.0335 19.25 5H20.75C20.75 3.20507 19.2949 1.75 17.5 1.75V3.25ZM12.5 1.75C10.7051 1.75 9.25 3.20507 9.25 5H10.75C10.75 4.0335 11.5335 3.25 12.5 3.25V1.75Z" fill="#FB8500"/>
</svg>
