<svg width="30" height="30" viewBox="0 0 30 30" fill="none" xmlns="http://www.w3.org/2000/svg">
<circle cx="15" cy="15" r="12.5" stroke="#FB8500" stroke-width="1.5"/>
<path d="M18.25 12.5C18.25 12.9142 17.9142 13.25 17.5 13.25C17.0858 13.25 16.75 12.9142 16.75 12.5H18.25ZM15 14.25C15.4142 14.25 15.75 14.5858 15.75 15C15.75 15.4142 15.4142 15.75 15 15.75V14.25ZM16.75 12.5C16.75 11.5335 15.9665 10.75 15 10.75V9.25C16.7949 9.25 18.25 10.7051 18.25 12.5H16.75ZM15 10.75C14.0335 10.75 13.25 11.5335 13.25 12.5H11.75C11.75 10.7051 13.2051 9.25 15 9.25V10.75ZM13.25 12.5C13.25 13.4665 14.0335 14.25 15 14.25V15.75C13.2051 15.75 11.75 14.2949 11.75 12.5H13.25Z" fill="#FB8500"/>
<path d="M15 15.75C14.5858 15.75 14.25 15.4142 14.25 15C14.25 14.5858 14.5858 14.25 15 14.25V15.75ZM11.75 17.5C11.75 17.0858 12.0858 16.75 12.5 16.75C12.9142 16.75 13.25 17.0858 13.25 17.5H11.75ZM16.75 17.5C16.75 16.5335 15.9665 15.75 15 15.75V14.25C16.7949 14.25 18.25 15.7051 18.25 17.5H16.75ZM13.25 17.5C13.25 18.4665 14.0335 19.25 15 19.25V20.75C13.2051 20.75 11.75 19.2949 11.75 17.5H13.25ZM15 19.25C15.9665 19.25 16.75 18.4665 16.75 17.5H18.25C18.25 19.2949 16.7949 20.75 15 20.75V19.25Z" fill="#FB8500"/>
<path d="M15 8.125V10" stroke="#FB8500" stroke-width="1.5" stroke-linecap="round" stroke-linejoin="round"/>
<path d="M15 20V21.875" stroke="#FB8500" stroke-width="1.5" stroke-linecap="round" stroke-linejoin="round"/>
</svg>
