<svg width="19" height="17" viewBox="0 0 19 17" fill="none" xmlns="http://www.w3.org/2000/svg">
<path d="M10 0.375C5.00781 0.375 1 3.67969 1 7.6875C1 9.375 1.66797 10.9219 2.82812 12.1523C2.33594 13.5234 1.24609 14.7188 1.21094 14.7188C0.964844 14.9648 0.929688 15.3164 1.03516 15.6328C1.17578 15.9492 1.49219 16.125 1.84375 16.125C3.98828 16.125 5.67578 15.2461 6.73047 14.5078C7.71484 14.8242 8.83984 15 10 15C14.957 15 18.9648 11.7305 18.9648 7.6875C18.9648 3.67969 14.957 0.375 10 0.375ZM10 13.3125C9.05078 13.3125 8.10156 13.1719 7.22266 12.8906L6.41406 12.6445L5.74609 13.1367C5.25391 13.4883 4.55078 13.875 3.70703 14.1562C3.98828 13.7344 4.23438 13.2422 4.41016 12.75L4.79688 11.7656L4.05859 10.9922C3.42578 10.3242 2.6875 9.19922 2.6875 7.6875C2.6875 4.59375 5.95703 2.0625 10 2.0625C14.0078 2.0625 17.3125 4.59375 17.3125 7.6875C17.3125 10.8164 14.0078 13.3125 10 13.3125Z" fill="#6F7378"/>
</svg>
