<svg width="21" height="18" viewBox="0 0 21 18" fill="none" xmlns="http://www.w3.org/2000/svg">
<path d="M20.5014 2.64508C19.7475 2.97031 18.927 3.20437 18.0819 3.29553C18.9593 2.77427 19.6164 1.95078 19.9298 0.979541C19.1065 1.46932 18.2045 1.81276 17.264 1.99463C16.8708 1.57437 16.3954 1.23957 15.8672 1.0111C15.3391 0.782621 14.7695 0.665365 14.194 0.666636C11.8657 0.666636 9.99324 2.55392 9.99324 4.86991C9.99324 5.19513 10.0327 5.52036 10.0967 5.83326C6.61042 5.65094 3.50108 3.9854 1.43394 1.43535C1.05729 2.07869 0.859905 2.81121 0.862336 3.55669C0.862336 5.01527 1.60394 6.30139 2.73484 7.05778C2.06838 7.03153 1.41754 6.84835 0.835234 6.52313V6.57487C0.835234 8.61737 2.27903 10.31 4.20327 10.6993C3.84197 10.7931 3.4703 10.8412 3.09702 10.8422C2.82353 10.8422 2.56483 10.8151 2.30367 10.7781C2.83585 12.4437 4.38559 13.6534 6.23099 13.6928C4.78719 14.8237 2.97875 15.489 1.01509 15.489C0.662767 15.489 0.337543 15.4766 0 15.4372C1.86265 16.6322 4.07269 17.322 6.45273 17.322C14.1793 17.322 18.4072 10.921 18.4072 5.36514C18.4072 5.18281 18.4072 5.00049 18.3949 4.81817C19.2128 4.21946 19.9298 3.47785 20.5014 2.64508Z" fill="#5AB0EE"/>
</svg>
