<svg width="21" height="17" viewBox="0 0 21 17" fill="none" xmlns="http://www.w3.org/2000/svg">
<path d="M5.97656 0.445312C6.08203 0.375 6.1875 0.375 6.32812 0.410156L14.0273 2.625L19.0898 0.585938C19.6172 0.375 20.25 0.761719 20.25 1.35938V13.1367C20.25 13.4883 20.0391 13.8047 19.6875 13.9102L14.2383 16.0898C14.1328 16.1602 14.0273 16.1602 13.8867 16.125L6.1875 13.9102L1.125 15.9492C0.597656 16.1602 0 15.7734 0 15.1758V3.39844C0 3.04688 0.175781 2.73047 0.527344 2.625L5.97656 0.445312ZM1.125 14.7539L5.625 12.9609V1.78125L1.125 3.57422V14.7539ZM13.5 3.64453L6.75 1.71094V12.8906L13.5 14.8242V3.64453ZM14.625 14.7539L19.125 12.9609V1.78125L14.625 3.57422V14.7539Z" fill="#5C626A"/>
</svg>
