<svg width="69" height="68" viewBox="0 0 69 68" fill="none" xmlns="http://www.w3.org/2000/svg">
<path d="M9.72676 24.4863L9.12364 23.6886L9.72676 24.4863ZM24.6807 17.0702L24.5694 16.0764L24.6807 17.0702ZM59.4279 20.7434L58.8701 19.9134V19.9134L59.4279 20.7434ZM12.6001 58.5899L12.0423 57.7599L12.6001 58.5899ZM62.3012 54.847L61.6981 54.0494V54.0494L62.3012 54.847ZM10.3299 25.2839C11.9205 24.0812 14.2945 22.4057 16.9117 20.9618C19.5472 19.5079 22.3422 18.3382 24.7919 18.064L24.5694 16.0764C21.7285 16.3944 18.6585 17.714 15.9456 19.2106C13.2145 20.7173 10.7569 22.4537 9.12364 23.6886L10.3299 25.2839ZM24.7919 18.064C29.0405 17.5884 32.0484 19.8292 35.4085 22.3854C38.6808 24.8747 42.3053 27.6794 47.4586 27.1026L47.2361 25.115C42.9875 25.5906 39.9796 23.3498 36.6195 20.7936C33.3472 18.3043 29.7227 15.4996 24.5694 16.0764L24.7919 18.064ZM47.4586 27.1026C51.7201 26.6256 56.5518 23.8809 59.9857 21.5734L58.8701 19.9134C55.4503 22.2115 50.972 24.6968 47.2361 25.115L47.4586 27.1026ZM13.1578 59.4199C16.5777 57.1218 21.056 54.6365 24.7919 54.2183L24.5694 52.2307C20.3079 52.7077 15.4762 55.4524 12.0423 57.7599L13.1578 59.4199ZM24.7919 54.2183C29.0405 53.7428 32.0484 55.9835 35.4085 58.5397C38.6808 61.029 42.3053 63.8337 47.4586 63.2569L47.2361 61.2693C42.9875 61.7449 39.9796 59.5042 36.6195 56.948C33.3472 54.4587 29.7227 51.6539 24.5694 52.2307L24.7919 54.2183ZM47.4586 63.2569C50.2995 62.9389 53.3695 61.6194 56.0824 60.1227C58.8135 58.616 61.2711 56.8796 62.9044 55.6447L61.6981 54.0494C60.1075 55.2521 57.7335 56.9276 55.1163 58.3715C52.4808 59.8255 49.6858 60.9951 47.2361 61.2693L47.4586 63.2569ZM63.3473 23.215V50.6117H65.3473V23.215H63.3473ZM8.68066 56.1183V28.7217H6.68066V56.1183H8.68066ZM62.9044 55.6447C64.4968 54.4407 65.3473 52.5573 65.3473 50.6117H63.3473C63.3473 51.9821 62.7508 53.2535 61.6981 54.0494L62.9044 55.6447ZM12.0423 57.7599C10.6279 58.7104 8.68066 57.6511 8.68066 56.1183H6.68066C6.68066 59.4218 10.5582 61.1669 13.1579 59.4199L12.0423 57.7599ZM59.9857 21.5734C61.4001 20.6229 63.3473 21.6822 63.3473 23.215H65.3473C65.3473 19.9115 61.4698 18.1664 58.8701 19.9134L59.9857 21.5734ZM9.12364 23.6886C7.53124 24.8927 6.68066 26.7761 6.68066 28.7217H8.68066C8.68066 27.3512 9.27721 26.0799 10.3299 25.2839L9.12364 23.6886ZM23.6807 17.0702V53.2245H25.6807V17.0702H23.6807ZM46.3473 26.1088V62.2631H48.3473V26.1088H46.3473Z" fill="white"/>
<path d="M38.657 37.1363C38.657 37.6886 39.1047 38.1363 39.657 38.1363C40.2093 38.1363 40.657 37.6886 40.657 37.1363H38.657ZM39.657 5.90289V4.90289C39.3918 4.90289 39.1374 5.00825 38.9499 5.19579C38.7624 5.38332 38.657 5.63768 38.657 5.90289L39.657 5.90289ZM56.657 5.90289L57.5446 6.36347C57.7055 6.05347 57.6929 5.68201 57.5116 5.38355C57.3302 5.0851 57.0062 4.90289 56.657 4.90289V5.90289ZM56.657 16.1684V17.1684C57.0159 17.1684 57.3473 16.9761 57.5253 16.6644C57.7033 16.3528 57.7007 15.9697 57.5184 15.6605L56.657 16.1684ZM53.8237 11.3633L52.936 10.9027C52.7774 11.2085 52.7873 11.5744 52.9623 11.8712L53.8237 11.3633ZM40.657 37.1363V16.1684H38.657V37.1363H40.657ZM39.657 6.90289H56.657V4.90289H39.657V6.90289ZM56.657 15.1684H39.657V17.1684H56.657V15.1684ZM40.657 16.1684V5.90289L38.657 5.90289V16.1684H40.657ZM55.7694 5.44232L52.936 10.9027L54.7113 11.8239L57.5446 6.36347L55.7694 5.44232ZM52.9623 11.8712L55.7956 16.6763L57.5184 15.6605L54.6851 10.8554L52.9623 11.8712Z" fill="white"/>
</svg>
