<svg width="15" height="16" viewBox="0 0 15 16" fill="none" xmlns="http://www.w3.org/2000/svg">
<circle cx="9.35963" cy="3.51222" r="0.761241" stroke="#5C626A"/>
<path d="M3.91105 11.2571C3.91105 11.4658 3.74188 11.6349 3.5332 11.6349V12.6349C4.29416 12.6349 4.91105 12.018 4.91105 11.2571H3.91105ZM3.5332 11.6349C3.32452 11.6349 3.15535 11.4658 3.15535 11.2571H2.15535C2.15535 12.018 2.77224 12.6349 3.5332 12.6349V11.6349ZM3.15535 11.2571C3.15535 11.0484 3.32452 10.8792 3.5332 10.8792V9.87923C2.77224 9.87923 2.15535 10.4961 2.15535 11.2571H3.15535ZM3.5332 10.8792C3.74188 10.8792 3.91105 11.0484 3.91105 11.2571H4.91105C4.91105 10.4961 4.29416 9.87923 3.5332 9.87923V10.8792ZM5.66674 11.2571C5.66674 11.8179 5.3089 12.5859 4.78648 13.2487C4.53308 13.5701 4.26163 13.8398 4.01545 14.024C3.74958 14.223 3.58526 14.2685 3.5332 14.2685V15.2685C3.92006 15.2685 4.30439 15.0568 4.61461 14.8247C4.94452 14.5778 5.27658 14.2423 5.57183 13.8677C6.14673 13.1384 6.66674 12.1508 6.66674 11.2571H5.66674ZM3.5332 14.2685C3.48113 14.2685 3.31682 14.223 3.05095 14.024C2.80477 13.8398 2.53331 13.5701 2.27991 13.2487C1.7575 12.5859 1.39966 11.8179 1.39966 11.2571H0.399658C0.399658 12.1508 0.919667 13.1384 1.49456 13.8677C1.78981 14.2423 2.12188 14.5778 2.45178 14.8247C2.762 15.0568 3.14634 15.2685 3.5332 15.2685V14.2685ZM1.39966 11.2571C1.39966 10.0788 2.35488 9.12354 3.5332 9.12354V8.12354C1.80259 8.12354 0.399658 9.52647 0.399658 11.2571H1.39966ZM3.5332 9.12354C4.71152 9.12354 5.66674 10.0788 5.66674 11.2571H6.66674C6.66674 9.52647 5.2638 8.12354 3.5332 8.12354V9.12354Z" fill="#5C626A"/>
<path d="M11.1434 3.51224C11.1434 3.97642 10.8438 4.62787 10.3943 5.19817C10.1773 5.47342 9.94597 5.70288 9.73805 5.85848C9.63427 5.93614 9.54435 5.98938 9.47209 6.02172C9.43651 6.03764 9.40863 6.04695 9.38836 6.05207C9.36795 6.05722 9.35892 6.0572 9.35965 6.0572V7.0572C9.71736 7.0572 10.0653 6.86263 10.3372 6.65911C10.6289 6.44085 10.9208 6.14556 11.1797 5.81722C11.6817 5.18035 12.1434 4.30933 12.1434 3.51224H11.1434ZM9.35965 6.0572C9.36038 6.0572 9.35135 6.05722 9.33095 6.05207C9.31067 6.04695 9.28279 6.03764 9.24721 6.02172C9.17495 5.98938 9.08503 5.93614 8.98125 5.85848C8.77333 5.70288 8.54196 5.47342 8.325 5.19817C7.87546 4.62787 7.57593 3.97642 7.57593 3.51224H6.57593C6.57593 4.30933 7.03763 5.18035 7.53965 5.81722C7.79846 6.14556 8.09044 6.44085 8.38209 6.65911C8.65404 6.86263 9.00194 7.0572 9.35965 7.0572V6.0572ZM7.57593 3.51224C7.57593 2.52712 8.37453 1.72852 9.35965 1.72852V0.728516C7.82224 0.728516 6.57593 1.97483 6.57593 3.51224H7.57593ZM9.35965 1.72852C10.3448 1.72852 11.1434 2.52712 11.1434 3.51224H12.1434C12.1434 1.97483 10.8971 0.728516 9.35965 0.728516V1.72852Z" fill="#5C626A"/>
<path d="M9.29707 8.12964V9.97316C9.29707 10.8171 9.98123 11.5013 10.8252 11.5013H12.33C13.1868 11.5013 13.8814 12.1958 13.8814 13.0526C13.8814 13.9094 13.1868 14.604 12.33 14.604H6.64307" stroke="#5C626A" stroke-linecap="round"/>
</svg>
