<svg width="25" height="24" viewBox="0 0 25 24" fill="none" xmlns="http://www.w3.org/2000/svg">
<path d="M9.83337 12H5.74759C5.48237 12 5.22802 11.8946 5.04048 11.7071L3.04048 9.70711C2.64996 9.31658 2.64996 8.68342 3.04048 8.29289L5.04048 6.29289C5.22802 6.10536 5.48237 6 5.74759 6H9.83337C10.3857 6 10.8334 6.44772 10.8334 7V11C10.8334 11.5523 10.3857 12 9.83337 12Z" stroke="#5E5E5E" stroke-width="1.5" stroke-linecap="round" stroke-linejoin="round"/>
<path d="M14.8334 12H18.9192C19.1844 12 19.4387 12.1054 19.6263 12.2929L21.6263 14.2929C22.0168 14.6834 22.0168 15.3166 21.6263 15.7071L19.6263 17.7071C19.4387 17.8946 19.1844 18 18.9192 18H14.8334C14.2811 18 13.8334 17.5523 13.8334 17V13C13.8334 12.4477 14.2811 12 14.8334 12Z" stroke="#5E5E5E" stroke-width="1.5" stroke-linecap="round" stroke-linejoin="round"/>
<path d="M10.8334 3C10.8334 2.44772 11.2811 2 11.8334 2H12.8334C13.3857 2 13.8334 2.44772 13.8334 3V21C13.8334 21.5523 13.3857 22 12.8334 22H11.8334C11.2811 22 10.8334 21.5523 10.8334 21V3Z" stroke="#5E5E5E" stroke-width="1.5"/>
</svg>
