<svg width="21" height="20" viewBox="0 0 21 20" fill="none" xmlns="http://www.w3.org/2000/svg">
<path d="M20.2322 3.5625C20.2322 5.49609 18.6853 7 16.7947 7C15.8064 7 14.9041 6.61328 14.2595 5.92578L7.77124 9.19141C7.81421 9.36328 7.85718 9.57812 7.85718 9.75C7.85718 9.96484 7.81421 10.1797 7.77124 10.3516L14.2595 13.5742C14.9041 12.9297 15.8064 12.5 16.7947 12.5C18.6853 12.5 20.2322 14.0469 20.2322 15.9375C20.2322 17.8711 18.6853 19.375 16.7947 19.375C14.8611 19.375 13.3572 17.8711 13.3572 15.9375C13.3572 15.5508 13.4001 15.1211 13.5291 14.7773L7.29858 11.6406C6.65405 12.5859 5.6228 13.1875 4.41968 13.1875C2.48608 13.1875 0.982178 11.6836 0.982178 9.75C0.982178 7.85938 2.48608 6.3125 4.41968 6.3125C5.6228 6.3125 6.65405 6.95703 7.29858 7.90234L13.5291 4.76562C13.4001 4.37891 13.3572 3.99219 13.3572 3.5625C13.3572 1.67188 14.8611 0.125 16.7947 0.125C18.6853 0.125 20.2322 1.67188 20.2322 3.5625ZM4.37671 11.8125C5.53687 11.8125 6.43921 10.9102 6.43921 9.75C6.43921 8.63281 5.53687 7.6875 4.37671 7.6875C3.25952 7.6875 2.31421 8.63281 2.31421 9.75C2.31421 10.9102 3.25952 11.8125 4.37671 11.8125ZM16.7947 1.5C15.6345 1.5 14.7322 2.44531 14.7322 3.5625C14.7322 4.72266 15.6345 5.625 16.7947 5.625C17.9119 5.625 18.8572 4.72266 18.8572 3.5625C18.8572 2.44531 17.9119 1.5 16.7947 1.5ZM16.7947 18C17.9119 18 18.8572 17.0977 18.8572 15.9375C18.8572 14.8203 17.9119 13.875 16.7947 13.875C15.6345 13.875 14.7322 14.8203 14.7322 15.9375C14.7322 17.0977 15.6345 18 16.7947 18Z" fill="#6F7378"/>
</svg>
