<svg width="30" height="30" viewBox="0 0 30 30" fill="none" xmlns="http://www.w3.org/2000/svg">
<g clip-path="url(#clip0_55_4623)">
<path d="M5.99362 7.51252L5.91043 8.2579L5.99362 7.51252ZM5.99362 24.5804L6.07681 23.835L5.99362 24.5804ZM14.2314 27.2617L14.6582 26.645H14.6582L14.2314 27.2617ZM24.0064 7.51252L23.9232 6.76715L24.0064 7.51252ZM24.0064 24.5804L23.9232 23.835L24.0064 24.5804ZM15.7686 27.2617L15.3418 26.645H15.3418L15.7686 27.2617ZM21.2035 7.98407L20.4591 8.07504L21.2035 7.98407ZM14.25 26.875C14.25 27.2892 14.5858 27.625 15 27.625C15.4142 27.625 15.75 27.2892 15.75 26.875H14.25ZM8 8.75C8 9.81633 8.47332 10.9366 9.08248 11.9577C9.70197 12.996 10.5169 14.0214 11.3147 14.918C12.1151 15.8175 12.9131 16.604 13.5098 17.1648C13.8087 17.4456 14.0582 17.6709 14.2337 17.8266C14.3215 17.9045 14.3909 17.9651 14.4388 18.0066C14.4627 18.0273 14.4813 18.0433 14.4941 18.0543C14.5006 18.0598 14.5055 18.064 14.509 18.067C14.5108 18.0685 14.5122 18.0697 14.5132 18.0705C14.5137 18.0709 14.5141 18.0713 14.5144 18.0716C14.5145 18.0717 14.5147 18.0718 14.5148 18.0719C14.5149 18.072 14.515 18.0721 15 17.5C15.485 16.9279 15.485 16.928 15.4851 16.928C15.4851 16.928 15.4851 16.928 15.4851 16.928C15.485 16.9279 15.4848 16.9278 15.4846 16.9275C15.484 16.9271 15.4832 16.9264 15.4819 16.9253C15.4794 16.9231 15.4754 16.9197 15.47 16.9151C15.4592 16.9058 15.4427 16.8916 15.4208 16.8727C15.3772 16.8349 15.3123 16.7783 15.2292 16.7046C15.0629 16.5571 14.8241 16.3415 14.5371 16.0717C13.9619 15.5312 13.1974 14.7774 12.4353 13.9209C11.6706 13.0614 10.923 12.115 10.3706 11.1891C9.80793 10.246 9.5 9.40956 9.5 8.75H8ZM15 17.5C15.485 18.0721 15.4851 18.072 15.4852 18.0719C15.4853 18.0718 15.4855 18.0717 15.4856 18.0716C15.4859 18.0713 15.4863 18.0709 15.4868 18.0705C15.4878 18.0697 15.4892 18.0685 15.491 18.067C15.4945 18.064 15.4994 18.0598 15.5059 18.0543C15.5187 18.0433 15.5373 18.0273 15.5612 18.0066C15.6091 17.9651 15.6785 17.9045 15.7663 17.8266C15.9418 17.6709 16.1913 17.4456 16.4902 17.1648C17.0869 16.604 17.8849 15.8175 18.6853 14.918C19.4831 14.0214 20.298 12.996 20.9175 11.9577C21.5267 10.9366 22 9.81633 22 8.75H20.5C20.5 9.40956 20.1921 10.246 19.6294 11.1891C19.077 12.115 18.3294 13.0614 17.5647 13.9209C16.8026 14.7774 16.0381 15.5312 15.4629 16.0717C15.1759 16.3415 14.9371 16.5571 14.7708 16.7046C14.6877 16.7783 14.6228 16.8349 14.5792 16.8727C14.5573 16.8916 14.5408 16.9058 14.53 16.9151C14.5246 16.9197 14.5206 16.9231 14.5181 16.9253C14.5168 16.9264 14.516 16.9271 14.5154 16.9275C14.5152 16.9278 14.515 16.9279 14.5149 16.928C14.5149 16.928 14.5149 16.928 14.5149 16.928C14.515 16.928 14.515 16.9279 15 17.5ZM5.91043 25.3257C8.36498 25.5997 11.569 26.3311 13.8046 27.8784L14.6582 26.645C12.1156 24.8852 8.61361 24.1181 6.07681 23.835L5.91043 25.3257ZM3 9.6502V22.1666H4.5V9.6502H3ZM6.07681 23.835C5.18266 23.7352 4.5 23.0037 4.5 22.1666H3C3 23.8432 4.33429 25.1498 5.91043 25.3257L6.07681 23.835ZM6.07681 6.76715C4.33782 6.57307 3 8.00824 3 9.6502H4.5C4.5 8.77848 5.17914 8.17628 5.91043 8.2579L6.07681 6.76715ZM23.9232 23.835C21.3864 24.1181 17.8844 24.8852 15.3418 26.645L16.1954 27.8784C18.431 26.3311 21.635 25.5997 24.0896 25.3257L23.9232 23.835ZM25.5 9.6502V22.1666H27V9.6502H25.5ZM24.0896 25.3257C25.6657 25.1498 27 23.8432 27 22.1666H25.5C25.5 23.0037 24.8173 23.7352 23.9232 23.835L24.0896 25.3257ZM24.0896 8.2579C24.8209 8.17628 25.5 8.77848 25.5 9.6502H27C27 8.00824 25.6622 6.57307 23.9232 6.76715L24.0896 8.2579ZM13.8046 27.8784C14.5206 28.3739 15.4794 28.3739 16.1954 27.8784L15.3418 26.645C15.1394 26.785 14.8606 26.785 14.6582 26.645L13.8046 27.8784ZM23.9232 6.76715C23.041 6.86561 22.054 7.02129 21.0371 7.25278L21.37 8.71537C22.3256 8.49784 23.2564 8.35088 24.0896 8.2579L23.9232 6.76715ZM22 8.75C22 8.46022 21.9824 8.17423 21.948 7.89311L20.4591 8.07504C20.4861 8.29594 20.5 8.52118 20.5 8.75H22ZM21.948 7.89311C21.525 4.431 18.5761 1.75 15 1.75V3.25C17.8088 3.25 20.1269 5.3562 20.4591 8.07504L21.948 7.89311ZM5.91043 8.2579C6.74358 8.35088 7.67443 8.49784 8.62999 8.71537L8.96293 7.25278C7.94599 7.02129 6.959 6.86561 6.07681 6.76715L5.91043 8.2579ZM15 1.75C11.4239 1.75 8.47504 4.431 8.052 7.89311L9.54093 8.07504C9.87315 5.3562 12.1912 3.25 15 3.25V1.75ZM8.052 7.89311C8.01765 8.17423 8 8.46022 8 8.75H9.5C9.5 8.52118 9.51393 8.29594 9.54093 8.07504L8.052 7.89311ZM14.25 17.5V26.875H15.75V17.5H14.25ZM16.125 8.75C16.125 9.37132 15.6213 9.875 15 9.875V11.375C16.4497 11.375 17.625 10.1997 17.625 8.75H16.125ZM15 9.875C14.3787 9.875 13.875 9.37132 13.875 8.75H12.375C12.375 10.1997 13.5503 11.375 15 11.375V9.875ZM13.875 8.75C13.875 8.12868 14.3787 7.625 15 7.625V6.125C13.5503 6.125 12.375 7.30025 12.375 8.75H13.875ZM15 7.625C15.6213 7.625 16.125 8.12868 16.125 8.75H17.625C17.625 7.30025 16.4497 6.125 15 6.125V7.625Z" fill="#FB8500"/>
</g>
<defs>
<clipPath id="clip0_55_4623">
<rect width="30" height="30" fill="white"/>
</clipPath>
</defs>
</svg>
