<svg width="14" height="15" viewBox="0 0 14 15" fill="none" xmlns="http://www.w3.org/2000/svg">
<path opacity="0.8" d="M7 0.75C10.8555 0.75 14 3.89453 14 7.75C14 11.6328 10.8555 14.75 7 14.75C3.11719 14.75 0 11.6328 0 7.75C0 3.89453 3.11719 0.75 7 0.75ZM7 13.4375C7.19141 13.4375 7.71094 13.2461 8.28516 12.125C8.53125 11.6328 8.72266 11.0586 8.88672 10.375H5.08594C5.25 11.0586 5.44141 11.6328 5.6875 12.125C6.26172 13.2461 6.78125 13.4375 7 13.4375ZM4.86719 9.0625H9.10547C9.16016 8.65234 9.1875 8.21484 9.1875 7.75C9.1875 7.3125 9.16016 6.875 9.10547 6.4375H4.86719C4.8125 6.875 4.8125 7.3125 4.8125 7.75C4.8125 8.21484 4.8125 8.65234 4.86719 9.0625ZM8.88672 5.125C8.72266 4.46875 8.53125 3.89453 8.28516 3.40234C7.71094 2.28125 7.19141 2.0625 7 2.0625C6.78125 2.0625 6.26172 2.28125 5.6875 3.40234C5.44141 3.89453 5.25 4.46875 5.08594 5.125H8.88672ZM10.418 6.4375C10.4727 6.875 10.5 7.3125 10.5 7.75C10.5 8.21484 10.4727 8.65234 10.418 9.0625H12.5234C12.6328 8.65234 12.6875 8.21484 12.6875 7.75C12.6875 7.3125 12.6328 6.875 12.5234 6.4375H10.418ZM9.35156 2.58203C9.73438 3.29297 10.0352 4.16797 10.2266 5.125H12.0312C11.457 4.00391 10.5 3.10156 9.35156 2.58203ZM4.62109 2.58203C3.47266 3.10156 2.51562 4.00391 1.94141 5.125H3.74609C3.9375 4.16797 4.23828 3.29297 4.62109 2.58203ZM1.3125 7.75C1.3125 8.21484 1.33984 8.65234 1.44922 9.0625H3.55469C3.5 8.65234 3.5 8.21484 3.5 7.75C3.5 7.3125 3.5 6.875 3.55469 6.4375H1.44922C1.33984 6.875 1.3125 7.3125 1.3125 7.75ZM12.0312 10.375H10.2266C10.0352 11.3594 9.73438 12.2344 9.35156 12.9453C10.5 12.4258 11.457 11.5234 12.0312 10.375ZM3.74609 10.375H1.94141C2.51562 11.5234 3.47266 12.4258 4.62109 12.9453C4.23828 12.2344 3.9375 11.3594 3.74609 10.375Z" fill="white"/>
</svg>
