<svg width="101" height="100" viewBox="0 0 101 100" fill="none" xmlns="http://www.w3.org/2000/svg">
<path d="M54.2425 59L40.2425 13C26.2425 17.5 17.7425 24.5 11.7425 37L54.2425 59Z" fill="#FB8500"/>
<circle cx="50.7425" cy="50" r="49.5" stroke="#222222"/>
<path d="M55.7425 55.5L41.7425 9.5C27.7425 14 19.2425 21 13.2425 33.5L55.7425 55.5Z" stroke="#222222"/>
<path d="M44.2425 17C38.4092 18 25.3425 23.4 19.7425 37" stroke="#222222"/>
<path d="M66.518 77.4218L90.8911 35.9736C78.1005 28.7176 67.1939 27.2018 53.9326 31.2497L66.518 77.4218Z" stroke="#222222"/>
<path d="M87.0644 42.8915C82.3789 39.2757 69.5579 33.3159 55.7578 38.403" stroke="#222222"/>
<circle cx="34.7425" cy="24" r="2.75" stroke="#222222" stroke-width="0.5"/>
<circle cx="40.7425" cy="45" r="2.75" stroke="#222222" stroke-width="0.5"/>
<circle cx="44.7425" cy="33" r="1.75" stroke="#222222" stroke-width="0.5"/>
<circle cx="33.7425" cy="35" r="1" fill="#222222"/>
<circle cx="49.7425" cy="45" r="1" fill="#222222"/>
<path d="M75.2425 37.5L59.7425 53.5" stroke="#222222" stroke-width="0.5"/>
<path d="M70.2425 36.5L58.7425 48" stroke="#222222" stroke-width="0.5"/>
<path d="M64.7425 36.5L57.7425 43.5" stroke="#222222" stroke-width="0.5"/>
<path d="M80.2425 39L61.7425 58" stroke="#222222" stroke-width="0.5"/>
<path d="M84.2425 41L62.7425 63" stroke="#222222" stroke-width="0.5"/>
<path d="M83.2425 48.5L63.7425 69" stroke="#222222" stroke-width="0.5"/>
<path d="M44.4271 68.0684C44.4271 68.0684 27.3222 58.705 25.5678 57.7446C23.8135 56.7843 22.8531 58.5386 24.6075 59.499C26.3618 60.4593 43.4667 69.8227 43.4667 69.8227" stroke="#222222"/>
<path d="M58.6697 70.1648L51.2138 66.0833C45.5121 62.9622 38.6744 72.3294 45.6918 76.1708L53.1477 80.2523" stroke="#222222"/>
<path d="M47.0169 70.6262L55.7886 75.428" stroke="#222222"/>
</svg>
