<svg width="23" height="22" viewBox="0 0 23 22" fill="none" xmlns="http://www.w3.org/2000/svg">
<path d="M16.4815 3.20343C16.9595 3.47997 17.5712 3.31661 17.8478 2.83855C18.1243 2.36049 17.961 1.74876 17.4829 1.47222L16.4815 3.20343ZM22.2893 7.14996C22.096 6.63262 21.5199 6.36994 21.0025 6.56326C20.4852 6.75659 20.2225 7.33269 20.4158 7.85004L22.2893 7.14996ZM7.60687 8.21913C7.17561 7.87412 6.54632 7.94404 6.20131 8.37531C5.8563 8.80657 5.92622 9.43586 6.35748 9.78087L7.60687 8.21913ZM10.5086 11.8211L9.88391 12.602L10.5086 11.8211ZM13.2446 11.5973L12.5013 10.9284L13.2446 11.5973ZM21.7255 3.66896C22.0949 3.25845 22.0617 2.62616 21.6511 2.25671C21.2406 1.88725 20.6083 1.92053 20.2389 2.33104L21.7255 3.66896ZM20.9822 11C20.9822 15.9706 16.9527 20 11.9822 20V22C18.0573 22 22.9822 17.0751 22.9822 11H20.9822ZM11.9822 20C7.01161 20 2.98218 15.9706 2.98218 11H0.982178C0.982178 17.0751 5.90705 22 11.9822 22V20ZM2.98218 11C2.98218 6.02944 7.01161 2 11.9822 2V0C5.90705 0 0.982178 4.92487 0.982178 11H2.98218ZM11.9822 2C13.6231 2 15.1587 2.43825 16.4815 3.20343L17.4829 1.47222C15.8639 0.535691 13.9841 0 11.9822 0V2ZM20.4158 7.85004C20.7817 8.82911 20.9822 9.89 20.9822 11H22.9822C22.9822 9.64736 22.7376 8.34957 22.2893 7.14996L20.4158 7.85004ZM6.35748 9.78087L9.88391 12.602L11.1333 11.0403L7.60687 8.21913L6.35748 9.78087ZM13.9879 12.2663L21.7255 3.66896L20.2389 2.33104L12.5013 10.9284L13.9879 12.2663ZM9.88391 12.602C11.1249 13.5948 12.9247 13.4476 13.9879 12.2663L12.5013 10.9284C12.1469 11.3221 11.547 11.3712 11.1333 11.0403L9.88391 12.602Z" fill="#40B8EA"/>
</svg>
