<svg width="100" height="100" viewBox="0 0 100 100" fill="none" xmlns="http://www.w3.org/2000/svg">
<path d="M34.375 62.8125L28.125 70.3125" stroke="#222222" stroke-width="0.5"/>
<path d="M39.0625 62.5L29.375 74.375" stroke="#222222" stroke-width="0.5"/>
<path d="M43.125 62.8125L31.25 77.8125" stroke="#222222" stroke-width="0.5"/>
<path d="M47.1875 63.4375L35.625 77.8125" stroke="#222222" stroke-width="0.5"/>
<path d="M51.5625 63.125L40 77.5" stroke="#222222" stroke-width="0.5"/>
<path d="M59.0625 59.375L52.1875 68.125" stroke="#222222" stroke-width="0.5"/>
<path d="M60.625 63.125L54.375 70.9375" stroke="#222222" stroke-width="0.5"/>
<path d="M60.3125 69.375L46.875 85" stroke="#222222" stroke-width="0.5"/>
<path d="M42.5 45L25 55L27.5 68.125C31.25 87.875 46.3542 85.9375 53.4375 82.5C67.4375 73.25 61.875 62.1875 56.25 56.25C50.625 50.3125 42.5 45 42.5 45Z" stroke="#222222"/>
<path d="M27.1875 65.3125C28.4375 63.8542 33.6875 61.375 44.6875 63.125C55.6875 64.875 56.9792 59.0625 56.25 55.9375" stroke="#222222"/>
<path d="M58.125 86.25L62.5 91.875" stroke="#222222"/>
<path d="M58.75 94.6875L65.9375 88.75" stroke="#222222"/>
<path d="M30.9375 78.4375C23.1875 81.4375 17.0833 88.8542 15 92.1875L36.5625 96.5625C37.8125 95.8125 44.7917 92.5 48.125 90.9375C63.75 83.4375 67.1875 65.3125 67.8125 62.1875C68.3125 59.6875 67.3438 58.125 65.625 58.125C63.4375 58.125 62.0625 62.8125 61.5625 64.0625C60.7292 66.1458 58.625 71.5625 56.875 74.0625C55.125 76.5625 51.5625 81.25 48.125 82.8125C47.1875 83.5417 45.0625 84.5625 44.0625 82.8125C43.0625 81.0625 44.4792 79.1667 45.3125 78.4375L50.3125 73.4375C51.6667 72.3958 53.8125 69.8125 51.5625 67.8125C49.3125 65.8125 46.4583 68.0208 45.3125 69.375C43.75 71.1458 38.6875 75.4375 30.9375 78.4375Z" fill="#FB8500"/>
<path d="M16.875 93.125C18.9583 89.7917 25.0625 82.375 32.8125 79.375C40.5625 76.375 45.625 72.0833 47.1875 70.3125C48.3333 68.9583 51.1875 66.75 53.4375 68.75C55.6875 70.75 53.5417 73.3333 52.1875 74.375L47.1875 79.375C46.3542 80.1042 44.9375 82 45.9375 83.75C46.9375 85.5 49.0625 84.4792 50 83.75C53.4375 82.1875 57 77.5 58.75 75C60.5 72.5 62.6042 67.0833 63.4375 65C63.9375 63.75 65.3125 59.0625 67.5 59.0625C69.2187 59.0625 70.1875 60.625 69.6875 63.125C69.0625 66.25 65.625 84.375 50 91.875C46.6667 93.4375 39.6875 96.75 38.4375 97.5" stroke="#222222"/>
<path d="M39.9688 27.7433L46.175 11.7104C47.2094 12.1241 56.0879 13.693 60.3978 14.2963L60.1351 30.5879C59.8765 28.9501 55.7431 25.4079 50.8298 24.6402C47.2094 24.0745 40.8307 25.8469 39.9688 27.7433Z" fill="#FB8500"/>
<path d="M15.9193 2.40094C26.6079 7.22806 55.019 16.572 83.1542 15.3307" stroke="#222222"/>
<path d="M13.3334 19.2097C17.8368 14.3929 20.1306 11.4731 23.4186 5.50409C26.5217 6.53847 32.0385 8.34864 34.5382 8.86583L28.5905 26.4503C28.5905 26.4503 25.4874 20.5026 23.6772 19.4683C21.867 18.4339 17.4312 18.5632 13.3334 19.2097Z" stroke="#222222"/>
<path d="M41.0031 29.2949L47.4679 12.2276C48.5023 12.6414 57.3808 13.9516 61.6907 14.555L61.1735 33.4324C60.9149 31.7947 56.7774 26.9595 51.8641 26.1918C48.2437 25.6261 41.865 27.3985 41.0031 29.2949Z" stroke="#222222"/>
<path d="M73.0689 33.1738L72.5518 15.3307H82.8956L87.2917 31.3636L80.5682 29.2948L73.0689 33.1738Z" stroke="#222222"/>
<path d="M21.8671 8.09007L25.2288 6.0213" stroke="#222222" stroke-width="0.5"/>
<path d="M20.0569 10.9346L27.2976 6.79706" stroke="#222222" stroke-width="0.5"/>
<path d="M17.4709 14.555L29.8835 7.57288" stroke="#222222" stroke-width="0.5"/>
<path d="M13.5919 18.9511L32.728 8.34863" stroke="#222222" stroke-width="0.5"/>
<path d="M18.2467 18.6925L34.021 10.1588" stroke="#222222" stroke-width="0.5"/>
<path d="M22.6428 19.2097L32.9866 13.5206" stroke="#222222" stroke-width="0.5"/>
<path d="M24.7115 20.7612L31.9522 16.6237" stroke="#222222" stroke-width="0.5"/>
<path d="M26.2632 22.5714L30.9179 19.7269" stroke="#222222" stroke-width="0.5"/>
<path d="M27.2975 24.123L29.8834 22.5714" stroke="#222222" stroke-width="0.5"/>
<circle cx="74.6205" cy="17.6581" r="0.525787" stroke="#222222" stroke-width="0.5"/>
<circle cx="75.6549" cy="21.2784" r="0.775787" fill="#FB8500"/>
<circle cx="76.1721" cy="21.7956" r="0.525787" stroke="#222222" stroke-width="0.5"/>
<circle cx="80.8228" cy="27.4847" r="1.29298" fill="#FB8500"/>
<circle cx="81.344" cy="28.0019" r="1.04298" stroke="#222222" stroke-width="0.5"/>
<circle cx="82.3784" cy="20.244" r="1.04298" stroke="#222222" stroke-width="0.5"/>
<circle cx="73.5861" cy="24.8988" r="0.525787" stroke="#222222" stroke-width="0.5"/>
<circle cx="75.3963" cy="30.3293" r="1.30157" stroke="#222222" stroke-width="0.5"/>
</svg>
