<svg width="16" height="13" viewBox="0 0 16 13" fill="none" xmlns="http://www.w3.org/2000/svg">
<path d="M1 4L0.55 4.6C0.361146 4.45836 0.25 4.23607 0.25 4C0.25 3.76393 0.361146 3.54164 0.55 3.4L1 4ZM1 12.75C0.585787 12.75 0.25 12.4142 0.25 12C0.25 11.5858 0.585787 11.25 1 11.25V12.75ZM4.55 0.4C4.88137 0.151472 5.35147 0.218629 5.6 0.55C5.84853 0.881371 5.78137 1.35147 5.45 1.6L4.55 0.4ZM5.45 6.4C5.78137 6.64853 5.84853 7.11863 5.6 7.45C5.35147 7.78137 4.88137 7.84853 4.55 7.6L5.45 6.4ZM1 3.25H11V4.75H1V3.25ZM11 12.75H1V11.25H11V12.75ZM0.55 3.4L4.55 0.4L5.45 1.6L1.45 4.6L0.55 3.4ZM1.45 3.4L5.45 6.4L4.55 7.6L0.55 4.6L1.45 3.4ZM15.75 8C15.75 10.6234 13.6234 12.75 11 12.75V11.25C12.7949 11.25 14.25 9.79493 14.25 8H15.75ZM11 3.25C13.6234 3.25 15.75 5.37665 15.75 8H14.25C14.25 6.20507 12.7949 4.75 11 4.75V3.25Z" fill="#6F7378"/>
</svg>
