<svg width="16" height="16" viewBox="0 0 16 16" fill="none" xmlns="http://www.w3.org/2000/svg">
<ellipse cx="8" cy="7.33325" rx="2" ry="2" stroke="white" stroke-width="1.5"/>
<path d="M13.25 7.25918C13.25 8.64494 12.4338 10.3294 11.2708 11.7062C10.6993 12.3828 10.0723 12.9502 9.47496 13.3426C8.86236 13.7449 8.35263 13.9166 8 13.9166V15.4166C8.77237 15.4166 9.57514 15.0714 10.2985 14.5963C11.0371 14.1111 11.7695 13.4403 12.4167 12.6742C13.6912 11.1654 14.75 9.14622 14.75 7.25918H13.25ZM8 13.9166C7.64737 13.9166 7.13764 13.7449 6.52504 13.3426C5.92774 12.9502 5.30072 12.3828 4.72919 11.7062C3.56618 10.3294 2.75 8.64494 2.75 7.25918H1.25C1.25 9.14622 2.30882 11.1654 3.58331 12.6742C4.23053 13.4403 4.96289 14.1111 5.70152 14.5963C6.42486 15.0714 7.22763 15.4166 8 15.4166V13.9166ZM2.75 7.25918C2.75 4.40935 5.09169 2.08325 8 2.08325V0.583252C4.28089 0.583252 1.25 3.56341 1.25 7.25918H2.75ZM8 2.08325C10.9083 2.08325 13.25 4.40935 13.25 7.25918H14.75C14.75 3.56341 11.7191 0.583252 8 0.583252V2.08325Z" fill="white"/>
</svg>
