<svg width="110" height="90" viewBox="0 0 110 90" fill="none" xmlns="http://www.w3.org/2000/svg">
<path d="M16.8182 61.0363C8.17282 64.6098 0.00603545 74.8005 0.523332 85.8919L104.5 89.5C100.103 84.5556 88.6496 78.524 74.6261 81.0812C61.4351 83.4866 52.1237 74.5332 48.244 71.0588C37.0524 61.0363 26.5174 57.0272 16.8182 61.0363Z" fill="#FB8500"/>
<path d="M5.52333 83.8919C5.00604 72.8005 13.1728 62.6098 21.8182 59.0363C31.5174 55.0272 42.0524 59.0363 53.244 69.0588C57.1237 72.5332 66.4351 81.4866 79.6261 79.0812C93.6496 76.524 105.103 82.5556 109.5 87.5" stroke="#222222"/>
<path d="M10.5 67.7846L19.1057 38.4773C20.8158 32.3537 25.7034 27.1321 29.1457 38.4773L33.4485 49.8226L44.2056 12.2414C46.6053 2.98349 53.9587 -8.74732 61.417 12.2414L75.7598 58.3317L82.214 44.8591C83.6483 41.5501 87.5209 36.9174 91.5369 44.8591C95.5529 52.8008 104.675 75.5729 108.5 85.5" stroke="#222222"/>
<path d="M56.8633 3.57129L44.2864 12.3876" stroke="#222222" stroke-width="0.5"/>
<path d="M59.1924 7.72949L41.9573 19.8406" stroke="#222222" stroke-width="0.5"/>
<path d="M61.0557 11.9219L40.0941 26.362" stroke="#222222" stroke-width="0.5"/>
<path d="M62.4531 16.8184L38.2309 32.4174" stroke="#222222" stroke-width="0.5"/>
<path d="M63.8506 21.238L37.2993 38.0073" stroke="#222222" stroke-width="0.5"/>
<path d="M65.7136 25.3506L35.4358 44.0627" stroke="#222222" stroke-width="0.5"/>
<path d="M67.1111 30.4634L33.5726 50.5843" stroke="#222222" stroke-width="0.5"/>
</svg>
