<svg width="21" height="20" viewBox="0 0 21 20" fill="none" xmlns="http://www.w3.org/2000/svg">
<path d="M8.0254 1L8.74315 1.21755C8.82341 0.952766 8.75137 0.665308 8.55573 0.46967C8.36009 0.274031 8.07263 0.201991 7.80785 0.282244L8.0254 1ZM19.5 12.4746L20.2178 12.6921C20.298 12.4274 20.226 12.1399 20.0303 11.9443C19.8347 11.7486 19.5472 11.6766 19.2825 11.7568L19.5 12.4746ZM6.88135 3.67163C6.88135 9.16522 11.3348 13.6187 16.8284 13.6187V12.1187C12.1632 12.1187 8.38135 8.33679 8.38135 3.67163H6.88135ZM0.75 9.80298C0.75 15.2966 5.20343 19.75 10.697 19.75V18.25C6.03186 18.25 2.25 14.4681 2.25 9.80298H0.75ZM7.80785 0.282244C3.72404 1.52002 0.75 5.3132 0.75 9.80298H2.25C2.25 5.99232 4.77389 2.7692 8.24294 1.71776L7.80785 0.282244ZM7.30764 0.782454C7.03024 1.6977 6.88135 2.66795 6.88135 3.67163H8.38135C8.38135 2.81697 8.50804 1.99326 8.74315 1.21755L7.30764 0.782454ZM10.697 19.75C15.1868 19.75 18.98 16.776 20.2178 12.6921L18.7822 12.2571C17.7308 15.7261 14.5077 18.25 10.697 18.25V19.75ZM16.8284 13.6187C17.832 13.6187 18.8023 13.4698 19.7175 13.1924L19.2825 11.7568C18.5067 11.992 17.683 12.1187 16.8284 12.1187V13.6187Z" fill="#6F7378"/>
</svg>
