<svg width="13" height="13" viewBox="0 0 13 13" fill="none" xmlns="http://www.w3.org/2000/svg">
<path opacity="0.8" d="M6.5625 0.625C7.27344 0.625 7.875 1.22656 7.875 1.9375V11.5625C7.875 12.3008 7.27344 12.875 6.5625 12.875H5.6875C4.94922 12.875 4.375 12.3008 4.375 11.5625V1.9375C4.375 1.22656 4.94922 0.625 5.6875 0.625H6.5625ZM6.5625 1.9375H5.6875V11.5625H6.5625V1.9375ZM2.1875 5.875C2.89844 5.875 3.5 6.47656 3.5 7.1875V11.5625C3.5 12.3008 2.89844 12.875 2.1875 12.875H1.3125C0.574219 12.875 0 12.3008 0 11.5625V7.1875C0 6.47656 0.574219 5.875 1.3125 5.875H2.1875ZM2.1875 7.1875H1.3125V11.5625H2.1875V7.1875ZM8.75 3.6875C8.75 2.97656 9.32422 2.375 10.0625 2.375H10.9375C11.6484 2.375 12.25 2.97656 12.25 3.6875V11.5625C12.25 12.3008 11.6484 12.875 10.9375 12.875H10.0625C9.32422 12.875 8.75 12.3008 8.75 11.5625V3.6875ZM10.0625 11.5625H10.9375V3.6875H10.0625V11.5625Z" fill="white"/>
</svg>
