<svg width="101" height="100" viewBox="0 0 101 100" fill="none" xmlns="http://www.w3.org/2000/svg">
<g clip-path="url(#clip0_55_4519)">
<path d="M21.7436 41.5302C20.9292 42.2966 19.9557 42.6789 18.7946 42.6789C17.6337 42.6789 16.6932 42.2972 15.9368 41.5408C15.1803 40.7844 14.7986 39.8438 14.7986 38.6829C14.7986 37.5221 15.1803 36.5815 15.9368 35.8251C16.6932 35.0687 17.6337 34.687 18.7946 34.687C19.9557 34.687 20.9292 35.0693 21.7436 35.8357C22.55 36.5945 22.9511 37.5319 22.9511 38.6829C22.9511 39.834 22.55 40.7714 21.7436 41.5302Z" stroke="#222222"/>
<path d="M39.3899 41.3878L39.4004 41.3832L39.4106 41.378C39.5355 41.3155 39.7208 41.2703 39.9897 41.2703C40.5083 41.2703 40.9135 41.4378 41.2419 41.7662C41.5702 42.0945 41.7377 42.4997 41.7377 43.0183C41.7377 43.5801 41.5166 44.0078 41.0345 44.3429L33.0936 47.6781L31.7458 47.9776H26.9836H26.2383L26.521 48.6673L30.5352 58.462L30.6624 58.7724H30.9979H39.8292C40.3434 58.7724 40.7438 58.8113 41.0414 58.88C41.3458 58.9502 41.4964 59.0411 41.563 59.1076L41.5716 59.1162L41.5806 59.1243L50.2481 66.9894C50.2486 66.9898 50.2491 66.9902 50.2495 66.9906C50.8877 67.5801 51.152 68.1194 51.1715 68.6089C51.1911 69.0968 50.9721 69.6535 50.3873 70.2896C49.8344 70.8395 49.2503 71.0628 48.6134 71.0204C47.9264 70.9747 47.3081 70.7269 46.7475 70.2644L39.2155 62.8927L39.0697 62.75H38.8657H25.8596C24.8547 62.75 24.052 62.5491 23.425 62.1776C22.8027 61.8088 22.32 61.2522 21.9823 60.4805L21.9824 60.4804L21.9781 60.4709L17.0466 49.8127V48.7988C17.0466 47.6471 17.4487 46.677 18.265 45.8607C19.0814 45.0443 20.0514 44.6423 21.2031 44.6423H31.9613H32.0674L32.1643 44.5992L39.3899 41.3878Z" stroke="#222222"/>
<path d="M54.9284 71L28.9999 5C65.9284 10.4072 81.0534 43.0361 83.9999 58.6747L54.9284 71Z" fill="#FB8500"/>
<path d="M56.457 67L30.9999 2C67.257 7.3253 82.107 39.4598 84.9999 54.8614L56.457 67Z" stroke="#222222"/>
<path d="M77.3689 67.5846C57.849 72.0824 41.6532 81.6402 35.9953 87.2625C31.7518 91.1278 30.7618 95.2274 31.0446 97.1015C36.7025 99.9126 43.4213 95.6959 45.543 90.425C47.6647 85.1542 53.6763 84.1 57.2125 84.8028C60.7487 85.5055 69.9428 84.1 71.7109 77.4235C73.1254 72.0824 80.08 72.1527 83.3804 72.8554C89.5098 69.2244 96.8887 63.0867 77.3689 67.5846Z" stroke="#222222"/>
<path d="M39.9999 84L33.9999 98" stroke="#222222" stroke-width="0.5"/>
<path d="M45.4999 80.5L38.4999 97.5" stroke="#222222" stroke-width="0.5"/>
<path d="M50.9999 77L46.9999 87.5" stroke="#222222" stroke-width="0.5"/>
</g>
<defs>
<clipPath id="clip0_55_4519">
<rect width="81" height="96" fill="white" transform="translate(8.99988 2)"/>
</clipPath>
</defs>
</svg>
