<svg width="16" height="16" viewBox="0 0 16 16" fill="none" xmlns="http://www.w3.org/2000/svg">
<ellipse cx="8" cy="7.3335" rx="2" ry="2" stroke="#5C626A" stroke-width="1.5"/>
<path d="M13.25 7.25942C13.25 8.64518 12.4338 10.3297 11.2708 11.7064C10.6993 12.383 10.0723 12.9505 9.47496 13.3428C8.86236 13.7452 8.35263 13.9168 8 13.9168V15.4168C8.77237 15.4168 9.57514 15.0716 10.2985 14.5965C11.0371 14.1113 11.7695 13.4406 12.4167 12.6744C13.6912 11.1657 14.75 9.14646 14.75 7.25942H13.25ZM8 13.9168C7.64737 13.9168 7.13764 13.7452 6.52504 13.3428C5.92774 12.9505 5.30072 12.383 4.72919 11.7064C3.56618 10.3297 2.75 8.64518 2.75 7.25942H1.25C1.25 9.14646 2.30882 11.1657 3.58331 12.6744C4.23053 13.4406 4.96289 14.1113 5.70152 14.5965C6.42486 15.0716 7.22763 15.4168 8 15.4168V13.9168ZM2.75 7.25942C2.75 4.40959 5.09169 2.0835 8 2.0835V0.583496C4.28089 0.583496 1.25 3.56365 1.25 7.25942H2.75ZM8 2.0835C10.9083 2.0835 13.25 4.40959 13.25 7.25942H14.75C14.75 3.56365 11.7191 0.583496 8 0.583496V2.0835Z" fill="#5C626A"/>
</svg>
