<svg width="100" height="100" viewBox="0 0 100 100" fill="none" xmlns="http://www.w3.org/2000/svg">
<path d="M53.5 59L39.5 13C25.5 17.5 17 24.5 11 37L53.5 59Z" fill="#FB8500"/>
<circle cx="50" cy="50" r="49.5" stroke="#222222"/>
<path d="M55 55.5L41 9.5C27 14 18.5 21 12.5 33.5L55 55.5Z" stroke="#222222"/>
<path d="M43.5 17C37.6667 18 24.6 23.4 19 37" stroke="#222222"/>
<path d="M65.7755 77.4218L90.1486 35.9736C77.358 28.7176 66.4515 27.2018 53.1901 31.2497L65.7755 77.4218Z" stroke="#222222"/>
<path d="M86.3219 42.8914C81.6364 39.2756 68.8154 33.3158 55.0153 38.4029" stroke="#222222"/>
<circle cx="34" cy="24" r="2.75" stroke="#222222" stroke-width="0.5"/>
<circle cx="40" cy="45" r="2.75" stroke="#222222" stroke-width="0.5"/>
<circle cx="44" cy="33" r="1.75" stroke="#222222" stroke-width="0.5"/>
<circle cx="33" cy="35" r="1" fill="#222222"/>
<circle cx="49" cy="45" r="1" fill="#222222"/>
<path d="M74.5 37.5L59 53.5" stroke="#222222" stroke-width="0.5"/>
<path d="M69.5 36.5L58 48" stroke="#222222" stroke-width="0.5"/>
<path d="M64 36.5L57 43.5" stroke="#222222" stroke-width="0.5"/>
<path d="M79.5 39L61 58" stroke="#222222" stroke-width="0.5"/>
<path d="M83.5 41L62 63" stroke="#222222" stroke-width="0.5"/>
<path d="M82.5 48.5L63 69" stroke="#222222" stroke-width="0.5"/>
<path d="M43.6846 68.0684C43.6846 68.0684 26.5797 58.705 24.8253 57.7446C23.071 56.7843 22.1107 58.5386 23.865 59.499C25.6193 60.4593 42.7242 69.8227 42.7242 69.8227" stroke="#222222"/>
<path d="M57.9272 70.1648L50.4713 66.0833C44.7697 62.9622 37.9319 72.3294 44.9493 76.1708L52.4052 80.2523" stroke="#222222"/>
<path d="M46.2744 70.6262L55.0461 75.428" stroke="#222222"/>
</svg>
