<svg width="18" height="18" viewBox="0 0 18 18" fill="none" xmlns="http://www.w3.org/2000/svg">
<path d="M16.668 0.66687H1.33464C0.965885 0.66687 0.667969 0.964787 0.667969 1.33354V16.6669C0.667969 17.0356 0.965885 17.3335 1.33464 17.3335H16.668C17.0367 17.3335 17.3346 17.0356 17.3346 16.6669V1.33354C17.3346 0.964787 17.0367 0.66687 16.668 0.66687ZM14.743 5.53145H13.4117C12.368 5.53145 12.1659 6.02729 12.1659 6.75645V8.3627H14.6576L14.3326 10.8773H12.1659V17.3335H9.56797V10.8794H7.39505V8.3627H9.56797V6.50854C9.56797 4.35645 10.8826 3.18354 12.8034 3.18354C13.7242 3.18354 14.5138 3.25229 14.7451 3.28354V5.53145H14.743Z" fill="#185AA9"/>
</svg>
