<svg width="16" height="13" viewBox="0 0 16 13" fill="none" xmlns="http://www.w3.org/2000/svg">
<path d="M0 1.0625C0 0.78125 0.246094 0.5 0.5625 0.5H15.1875C15.4688 0.5 15.75 0.78125 15.75 1.0625C15.75 1.37891 15.4688 1.625 15.1875 1.625H0.5625C0.246094 1.625 0 1.37891 0 1.0625ZM0 6.6875C0 6.40625 0.246094 6.125 0.5625 6.125H15.1875C15.4688 6.125 15.75 6.40625 15.75 6.6875C15.75 7.00391 15.4688 7.25 15.1875 7.25H0.5625C0.246094 7.25 0 7.00391 0 6.6875ZM15.1875 12.875H0.5625C0.246094 12.875 0 12.6289 0 12.3125C0 12.0312 0.246094 11.75 0.5625 11.75H15.1875C15.4688 11.75 15.75 12.0312 15.75 12.3125C15.75 12.6289 15.4688 12.875 15.1875 12.875Z" fill="#5C626A"/>
</svg>
