<svg width="16" height="16" viewBox="0 0 16 16" fill="none" xmlns="http://www.w3.org/2000/svg">
<path d="M2 5.24992C1.58579 5.24992 1.25 5.58571 1.25 5.99992C1.25 6.41413 1.58579 6.74992 2 6.74992V5.24992ZM14 6.74992C14.4142 6.74992 14.75 6.41413 14.75 5.99992C14.75 5.58571 14.4142 5.24992 14 5.24992V6.74992ZM6.08333 1.33325C6.08333 0.919038 5.74755 0.583252 5.33333 0.583252C4.91912 0.583252 4.58333 0.919038 4.58333 1.33325H6.08333ZM4.58333 3.33325C4.58333 3.74747 4.91912 4.08325 5.33333 4.08325C5.74755 4.08325 6.08333 3.74747 6.08333 3.33325H4.58333ZM11.4167 1.33325C11.4167 0.919038 11.0809 0.583252 10.6667 0.583252C10.2525 0.583252 9.91667 0.919038 9.91667 1.33325H11.4167ZM9.91667 3.33325C9.91667 3.74747 10.2525 4.08325 10.6667 4.08325C11.0809 4.08325 11.4167 3.74747 11.4167 3.33325H9.91667ZM4.66667 3.08325H11.3333V1.58325H4.66667V3.08325ZM13.25 4.99992V11.9999H14.75V4.99992H13.25ZM11.3333 13.9166H4.66667V15.4166H11.3333V13.9166ZM2.75 11.9999V4.99992H1.25V11.9999H2.75ZM4.66667 13.9166C3.60812 13.9166 2.75 13.0585 2.75 11.9999H1.25C1.25 13.8869 2.77969 15.4166 4.66667 15.4166V13.9166ZM13.25 11.9999C13.25 13.0585 12.3919 13.9166 11.3333 13.9166V15.4166C13.2203 15.4166 14.75 13.8869 14.75 11.9999H13.25ZM11.3333 3.08325C12.3919 3.08325 13.25 3.94137 13.25 4.99992H14.75C14.75 3.11295 13.2203 1.58325 11.3333 1.58325V3.08325ZM4.66667 1.58325C2.77969 1.58325 1.25 3.11295 1.25 4.99992H2.75C2.75 3.94137 3.60812 3.08325 4.66667 3.08325V1.58325ZM2 6.74992H14V5.24992H2V6.74992ZM4.58333 1.33325V3.33325H6.08333V1.33325H4.58333ZM9.91667 1.33325V3.33325H11.4167V1.33325H9.91667Z" fill="#5C626A"/>
</svg>
