<svg width="109" height="133" viewBox="0 0 109 133" fill="none" xmlns="http://www.w3.org/2000/svg">
<path d="M57.1187 12.3801H51.658V126.906H57.1187V12.3801Z" fill="#D89D61"/>
<path d="M60.9575 20.4608C64.6409 16.7661 64.6409 10.776 60.9575 7.08133C57.274 3.38669 51.3019 3.38669 47.6185 7.08133C43.935 10.776 43.935 16.7661 47.6185 20.4608C51.3019 24.1554 57.274 24.1554 60.9575 20.4608Z" fill="#F2BF98"/>
<path d="M11.0747 45.2439H51.6579V22.8368H11.0747L0.277344 34.0404L11.0747 45.2439Z" fill="#DBC141"/>
<path d="M11.0747 74.7467H51.6579V52.3395H11.0747L0.277344 63.5431L11.0747 74.7467Z" fill="#F6851F"/>
<path d="M97.7018 40.0156H57.1187V62.4227H97.7018L108.499 51.2191L97.7018 40.0156Z" fill="#E08989"/>
<path d="M93.6062 132.756C84.9186 123.296 70.6463 117.196 54.3882 117.196C38.1301 117.196 23.8577 123.42 15.1702 132.756H93.6062Z" fill="#F6851F"/>
</svg>
