<svg width="12" height="12" viewBox="0 0 12 12" fill="none" xmlns="http://www.w3.org/2000/svg">
<path d="M0 1.73438C0 1.19531 0.421875 0.75 0.960938 0.75H11.0156C11.5547 0.75 12 1.19531 12 1.73438C12 1.96875 11.9062 2.17969 11.7656 2.34375L7.875 7.14844V10.5C7.875 10.9219 7.52344 11.25 7.10156 11.25C6.9375 11.25 6.77344 11.2031 6.63281 11.0859L4.47656 9.375C4.24219 9.1875 4.125 8.92969 4.125 8.64844V7.14844L0.210938 2.34375C0.0703125 2.17969 0 1.96875 0 1.73438ZM1.26562 1.875L5.10938 6.58594C5.20312 6.70312 5.25 6.82031 5.25 6.9375V8.55469L6.75 9.75V6.9375C6.75 6.82031 6.77344 6.70312 6.86719 6.58594L10.7109 1.875H1.26562Z" fill="#023047"/>
</svg>
