<svg width="16" height="17" viewBox="0 0 16 17" fill="none" xmlns="http://www.w3.org/2000/svg">
<path d="M3.09375 0.375C3.86719 0.375 4.5 1.00781 4.5 1.78125V3.46875C4.5 4.27734 3.86719 4.875 3.09375 4.875H1.40625C0.597656 4.875 0 4.27734 0 3.46875V1.78125C0 1.00781 0.597656 0.375 1.40625 0.375H3.09375ZM3.09375 1.5H1.40625C1.23047 1.5 1.125 1.64062 1.125 1.78125V3.46875C1.125 3.64453 1.23047 3.75 1.40625 3.75H3.09375C3.23438 3.75 3.375 3.64453 3.375 3.46875V1.78125C3.375 1.64062 3.23438 1.5 3.09375 1.5ZM3.09375 6C3.86719 6 4.5 6.63281 4.5 7.40625V9.09375C4.5 9.90234 3.86719 10.5 3.09375 10.5H1.40625C0.597656 10.5 0 9.90234 0 9.09375V7.40625C0 6.63281 0.597656 6 1.40625 6H3.09375ZM3.09375 7.125H1.40625C1.23047 7.125 1.125 7.26562 1.125 7.40625V9.09375C1.125 9.26953 1.23047 9.375 1.40625 9.375H3.09375C3.23438 9.375 3.375 9.26953 3.375 9.09375V7.40625C3.375 7.26562 3.23438 7.125 3.09375 7.125ZM0 13.0312C0 12.2578 0.597656 11.625 1.40625 11.625H3.09375C3.86719 11.625 4.5 12.2578 4.5 13.0312V14.7188C4.5 15.5273 3.86719 16.125 3.09375 16.125H1.40625C0.597656 16.125 0 15.5273 0 14.7188V13.0312ZM1.125 13.0312V14.7188C1.125 14.8945 1.23047 15 1.40625 15H3.09375C3.23438 15 3.375 14.8945 3.375 14.7188V13.0312C3.375 12.8906 3.23438 12.75 3.09375 12.75H1.40625C1.23047 12.75 1.125 12.8906 1.125 13.0312ZM8.71875 0.375C9.49219 0.375 10.125 1.00781 10.125 1.78125V3.46875C10.125 4.27734 9.49219 4.875 8.71875 4.875H7.03125C6.22266 4.875 5.625 4.27734 5.625 3.46875V1.78125C5.625 1.00781 6.22266 0.375 7.03125 0.375H8.71875ZM8.71875 1.5H7.03125C6.85547 1.5 6.75 1.64062 6.75 1.78125V3.46875C6.75 3.64453 6.85547 3.75 7.03125 3.75H8.71875C8.85938 3.75 9 3.64453 9 3.46875V1.78125C9 1.64062 8.85938 1.5 8.71875 1.5ZM5.625 7.40625C5.625 6.63281 6.22266 6 7.03125 6H8.71875C9.49219 6 10.125 6.63281 10.125 7.40625V9.09375C10.125 9.90234 9.49219 10.5 8.71875 10.5H7.03125C6.22266 10.5 5.625 9.90234 5.625 9.09375V7.40625ZM6.75 7.40625V9.09375C6.75 9.26953 6.85547 9.375 7.03125 9.375H8.71875C8.85938 9.375 9 9.26953 9 9.09375V7.40625C9 7.26562 8.85938 7.125 8.71875 7.125H7.03125C6.85547 7.125 6.75 7.26562 6.75 7.40625ZM8.71875 11.625C9.49219 11.625 10.125 12.2578 10.125 13.0312V14.7188C10.125 15.5273 9.49219 16.125 8.71875 16.125H7.03125C6.22266 16.125 5.625 15.5273 5.625 14.7188V13.0312C5.625 12.2578 6.22266 11.625 7.03125 11.625H8.71875ZM8.71875 12.75H7.03125C6.85547 12.75 6.75 12.8906 6.75 13.0312V14.7188C6.75 14.8945 6.85547 15 7.03125 15H8.71875C8.85938 15 9 14.8945 9 14.7188V13.0312C9 12.8906 8.85938 12.75 8.71875 12.75ZM11.25 1.78125C11.25 1.00781 11.8477 0.375 12.6562 0.375H14.3438C15.1172 0.375 15.75 1.00781 15.75 1.78125V3.46875C15.75 4.27734 15.1172 4.875 14.3438 4.875H12.6562C11.8477 4.875 11.25 4.27734 11.25 3.46875V1.78125ZM12.375 1.78125V3.46875C12.375 3.64453 12.4805 3.75 12.6562 3.75H14.3438C14.4844 3.75 14.625 3.64453 14.625 3.46875V1.78125C14.625 1.64062 14.4844 1.5 14.3438 1.5H12.6562C12.4805 1.5 12.375 1.64062 12.375 1.78125ZM14.3438 6C15.1172 6 15.75 6.63281 15.75 7.40625V9.09375C15.75 9.90234 15.1172 10.5 14.3438 10.5H12.6562C11.8477 10.5 11.25 9.90234 11.25 9.09375V7.40625C11.25 6.63281 11.8477 6 12.6562 6H14.3438ZM14.3438 7.125H12.6562C12.4805 7.125 12.375 7.26562 12.375 7.40625V9.09375C12.375 9.26953 12.4805 9.375 12.6562 9.375H14.3438C14.4844 9.375 14.625 9.26953 14.625 9.09375V7.40625C14.625 7.26562 14.4844 7.125 14.3438 7.125ZM11.25 13.0312C11.25 12.2578 11.8477 11.625 12.6562 11.625H14.3438C15.1172 11.625 15.75 12.2578 15.75 13.0312V14.7188C15.75 15.5273 15.1172 16.125 14.3438 16.125H12.6562C11.8477 16.125 11.25 15.5273 11.25 14.7188V13.0312ZM12.375 13.0312V14.7188C12.375 14.8945 12.4805 15 12.6562 15H14.3438C14.4844 15 14.625 14.8945 14.625 14.7188V13.0312C14.625 12.8906 14.4844 12.75 14.3438 12.75H12.6562C12.4805 12.75 12.375 12.8906 12.375 13.0312Z" fill="#5C626A"/>
</svg>
