<svg width="18" height="18" viewBox="0 0 18 18" fill="none" xmlns="http://www.w3.org/2000/svg">
<path d="M16.668 0.66687H1.33464C0.965885 0.66687 0.667969 0.964787 0.667969 1.33354V16.6669C0.667969 17.0356 0.965885 17.3335 1.33464 17.3335H16.668C17.0367 17.3335 17.3346 17.0356 17.3346 16.6669V1.33354C17.3346 0.964787 17.0367 0.66687 16.668 0.66687ZM5.61172 14.869H3.1388V6.91479H5.61172V14.869ZM4.3763 5.82729C4.09281 5.82729 3.81569 5.74322 3.57998 5.58573C3.34427 5.42823 3.16056 5.20437 3.05207 4.94247C2.94359 4.68056 2.9152 4.39236 2.97051 4.11432C3.02582 3.83628 3.16233 3.58089 3.36278 3.38043C3.56324 3.17998 3.81863 3.04347 4.09667 2.98816C4.37471 2.93286 4.66291 2.96124 4.92481 3.06973C5.18672 3.17821 5.41058 3.36193 5.56807 3.59764C5.72557 3.83335 5.80963 4.11047 5.80963 4.39395C5.80755 5.18562 5.16588 5.82729 4.3763 5.82729ZM14.8701 14.869H12.3992V11.0002C12.3992 10.0773 12.3826 8.89187 11.1138 8.89187C9.82838 8.89187 9.63047 9.89604 9.63047 10.9335V14.869H7.16172V6.91479H9.53255V8.00229H9.56588C9.89505 7.37729 10.7013 6.71687 11.9055 6.71687C14.4096 6.71687 14.8701 8.36479 14.8701 10.5065V14.869Z" fill="#238CD8"/>
</svg>
