<svg width="16" height="12" viewBox="0 0 16 12" fill="none" xmlns="http://www.w3.org/2000/svg">
<path d="M1.91318 7.43119L1.36955 7.94787L1.91318 7.43119ZM1.91318 4.56865L1.36955 4.05196L1.91318 4.56865ZM14.0869 7.43119L14.6305 7.94787L14.0869 7.43119ZM14.0869 4.56865L14.6305 4.05196L14.0869 4.56865ZM13.5433 6.9145C12.2553 8.26967 10.2082 9.91658 8.00004 9.91658V11.4166C10.8792 11.4166 13.3108 9.33638 14.6305 7.94787L13.5433 6.9145ZM8.00004 9.91658C5.79186 9.91658 3.74482 8.26967 2.45681 6.9145L1.36955 7.94787C2.68925 9.33639 5.12086 11.4166 8.00004 11.4166V9.91658ZM2.45681 5.08534C3.74482 3.73016 5.79186 2.08325 8.00004 2.08325V0.583252C5.12086 0.583252 2.68925 2.66345 1.36955 4.05196L2.45681 5.08534ZM8.00004 2.08325C10.2082 2.08325 12.2553 3.73016 13.5433 5.08534L14.6305 4.05196C13.3108 2.66345 10.8792 0.583252 8.00004 0.583252V2.08325ZM2.45681 6.9145C1.9589 6.39062 1.9589 5.60921 2.45681 5.08534L1.36955 4.05196C0.321316 5.15485 0.321316 6.84498 1.36955 7.94787L2.45681 6.9145ZM14.6305 7.94787C15.6788 6.84498 15.6788 5.15485 14.6305 4.05196L13.5433 5.08534C14.0412 5.60921 14.0412 6.39062 13.5433 6.9145L14.6305 7.94787ZM9.25004 5.99992C9.25004 6.69027 8.6904 7.24992 8.00004 7.24992V8.74992C9.51882 8.74992 10.75 7.5187 10.75 5.99992H9.25004ZM8.00004 7.24992C7.30968 7.24992 6.75004 6.69027 6.75004 5.99992H5.25004C5.25004 7.5187 6.48126 8.74992 8.00004 8.74992V7.24992ZM6.75004 5.99992C6.75004 5.30956 7.30968 4.74992 8.00004 4.74992V3.24992C6.48126 3.24992 5.25004 4.48114 5.25004 5.99992H6.75004ZM8.00004 4.74992C8.6904 4.74992 9.25004 5.30956 9.25004 5.99992H10.75C10.75 4.48114 9.51882 3.24992 8.00004 3.24992V4.74992Z" fill="#5E5E5E"/>
</svg>
