<svg width="25" height="24" viewBox="0 0 25 24" fill="none" xmlns="http://www.w3.org/2000/svg">
<path d="M6.00729 12.1619L6.24446 11.4504V11.4504L6.00729 12.1619ZM9.70976 13.3961L9.47259 14.1076L9.70976 13.3961ZM16.5206 18.4927L17.2321 18.7299L16.5206 18.4927ZM20.3831 6.90526L19.6716 6.66809L19.6716 6.66809L20.3831 6.90526ZM17.5947 4.11693L17.3576 3.40542V3.40542L17.5947 4.11693ZM6.00729 7.97942L5.77012 7.2679L6.00729 7.97942ZM5.77012 12.8734L9.47259 14.1076L9.94693 12.6846L6.24446 11.4504L5.77012 12.8734ZM10.3924 15.0274L11.6266 18.7299L13.0496 18.2555L11.8154 14.5531L10.3924 15.0274ZM17.2321 18.7299L21.0946 7.14243L19.6716 6.66809L15.8091 18.2555L17.2321 18.7299ZM17.3576 3.40542L5.77012 7.2679L6.24446 8.69093L17.8319 4.82845L17.3576 3.40542ZM21.0946 7.14244C21.8644 4.83283 19.6672 2.63555 17.3576 3.40542L17.8319 4.82845C18.9689 4.44946 20.0505 5.53113 19.6716 6.66809L21.0946 7.14244ZM11.6266 18.7299C12.5244 21.4234 16.3343 21.4234 17.2321 18.7299L15.8091 18.2555C15.3671 19.5815 13.4916 19.5815 13.0496 18.2555L11.6266 18.7299ZM9.47259 14.1076C9.90687 14.2523 10.2477 14.5931 10.3924 15.0274L11.8154 14.5531C11.5214 13.6709 10.8291 12.9786 9.94693 12.6846L9.47259 14.1076ZM6.24446 11.4504C4.91851 11.0084 4.91851 9.13291 6.24446 8.69093L5.77012 7.2679C3.07663 8.16573 3.07663 11.9756 5.77012 12.8734L6.24446 11.4504Z" fill="#FB8500"/>
</svg>
