<svg width="100" height="100" viewBox="0 0 100 100" fill="none" xmlns="http://www.w3.org/2000/svg">
<rect x="39.1666" y="21.6667" width="19.1667" height="38.3333" rx="9.58333" fill="#FB8500"/>
<rect x="42.1666" y="19.6667" width="18.1667" height="37.3333" rx="9.08333" stroke="#222222"/>
<path d="M50.8334 57.5V85.4167" stroke="#222222" stroke-linejoin="round"/>
<rect x="60.5" y="8.83331" width="24.8333" height="48.1667" rx="12.4167" stroke="#222222"/>
<path d="M72.5 27.0833V77.9166" stroke="#222222" stroke-linejoin="round"/>
<rect x="17.1666" y="8.83331" width="24.8333" height="48.1667" rx="12.4167" stroke="#222222"/>
<path d="M31.6666 8.58722L17.0833 18.4708" stroke="#222222" stroke-width="0.5"/>
<path d="M35.8334 10.2539L17.0834 22.0833" stroke="#222222" stroke-width="0.5"/>
<path d="M38.9817 12.5342L17.0834 26.25" stroke="#222222" stroke-width="0.5"/>
<path d="M40.5342 15.9613L17.0834 30.4167" stroke="#222222" stroke-width="0.5"/>
<path d="M41.6987 20.222L17.0833 35" stroke="#222222" stroke-width="0.5"/>
<path d="M29.1666 57.0833V74.5833" stroke="#222222" stroke-linejoin="round"/>
<path d="M72.5 36.25L79.1667 31.6667" stroke="#222222" stroke-linejoin="round"/>
<path d="M72.5 45.4166L79.1667 40.8333" stroke="#222222" stroke-linejoin="round"/>
<path d="M12.5 92.6795C15.8333 84.7628 25.5519 69.6869 35.4167 76.4295C41.25 80.4166 45.8333 86.25 52.0833 85.5962C59.5833 84.8116 66.6667 67.2628 87.5 85.5962" stroke="black"/>
</svg>
