<svg width="122" height="97" viewBox="0 0 122 97" fill="none" xmlns="http://www.w3.org/2000/svg">
<path d="M67 5.14286C58.7714 4.45715 55.5714 7.42858 55 9.00001L58.4286 17.5714C58.1429 16.4286 59.8857 13.8857 69.1429 12.8572C78.4 11.8286 77 4.14287 75.1429 0.428589C75.8571 2.28573 75.2286 5.82858 67 5.14286Z" fill="#FB8500"/>
<path d="M20.2857 80.5714L37.8572 86.5714V93.4286L16 85.2857L10.8572 75.8571L15.1429 71.5714L20.2857 80.5714Z" fill="#FB8500"/>
<path d="M37.8572 86.5714C48.3334 72.75 57.7937 53.5446 60.5715 44.5714C58.6667 72.5357 44.2064 87.9375 37.8572 93.4286V86.5714Z" fill="#FB8500"/>
<path d="M102.143 80.5714L84.5714 86.5714V93.4286L106.429 85.2857L111.571 75.8571L107.286 71.5714L102.143 80.5714Z" fill="#FB8500"/>
<path d="M84.5714 86.5714C74.0952 72.75 64.6349 53.5446 61.8571 44.5714C63.7619 72.5357 78.2222 87.9375 84.5714 93.4286V86.5714Z" fill="#FB8500"/>
<path d="M61 23.5714C52.4286 39.798 30.1428 76.401 9.57141 93" stroke="#222222"/>
<path d="M61 22.7144C48.8667 37.381 19.88 69.9144 1 82.7144" stroke="#222222"/>
<path d="M61 23.5714V44.1428" stroke="#222222"/>
<path d="M39.5714 88.3392C50.0476 74.5178 58.2222 53.116 61 44.1428C59.0952 72.1071 45.9206 90.0803 39.5714 95.5714V88.3392Z" stroke="#222222"/>
<path d="M39.5714 87.8571L21.5299 81.8989L14.7142 71.5714" stroke="#222222"/>
<path d="M39.5714 95.5715L15.6165 87.5472L8.71423 76.7144" stroke="#222222"/>
<path d="M52.4286 33L54.0612 35.9388L61 38.1429" stroke="#222222"/>
<path d="M61 23.5714C69.5714 39.798 91.8572 76.401 112.429 93" stroke="#222222"/>
<path d="M61 22.7144C73.1333 37.381 102.12 69.9144 121 82.7144" stroke="#222222"/>
<path d="M82.4286 88.3392C71.9524 74.5178 63.7778 53.116 61 44.1428C62.9048 72.1071 76.0794 90.0803 82.4286 95.5714V88.3392Z" stroke="#222222"/>
<path d="M82.4286 87.8571L100.47 81.8989L107.286 71.5714" stroke="#222222"/>
<path d="M82.4286 95.5715L106.383 87.5472L113.286 76.7144" stroke="#222222"/>
<path d="M69.5714 33L67.9388 35.9388L61 38.1429" stroke="#222222"/>
<path d="M51.5714 79.2858H70.4286" stroke="#222222"/>
<path d="M57.5714 30L52 33.4286" stroke="#222222" stroke-width="0.5"/>
<line x1="54.2625" y1="35.7909" x2="44.834" y2="40.9337" stroke="#222222" stroke-width="0.5"/>
<path d="M51.4689 40.0895L40.8571 45.4286" stroke="#222222" stroke-width="0.5"/>
<path d="M48.5714 45L34.4286 52.1836" stroke="#222222" stroke-width="0.5"/>
<path d="M45.1428 50.2052L29.2857 57.8571" stroke="#222222" stroke-width="0.5"/>
<path d="M41.2858 55.5396L22.0001 64.7143" stroke="#222222" stroke-width="0.5"/>
<path d="M37 61.7144L14.7143 71.8979" stroke="#222222" stroke-width="0.5"/>
<path d="M32.2858 68.1428L17.2858 75" stroke="#222222" stroke-width="0.5"/>
<path d="M27.1428 74.5714L19 78.4286" stroke="#222222" stroke-width="0.5"/>
<path d="M69.5714 6.8571C61.3428 6.17138 58.1428 9.14281 57.5714 10.7142L61 19.2857C60.7143 18.1428 62.4571 15.6 71.7143 14.5714C80.9714 13.5428 79.5714 5.85711 77.7143 2.14282C78.4286 3.99996 77.8 7.54281 69.5714 6.8571Z" stroke="#222222"/>
</svg>
